<?xml version="1.0" encoding="UTF-8" standalone="no"?>
<!-- Created with Inkscape (http://www.inkscape.org/) -->

<svg
   version="1.1"
   id="svg30"
   xml:space="preserve"
   width="901.19733"
   height="183.31467"
   viewBox="0 0 901.19733 183.31467"
   xmlns="http://www.w3.org/2000/svg"
   xmlns:svg="http://www.w3.org/2000/svg"><defs
     id="defs34"><clipPath
       clipPathUnits="userSpaceOnUse"
       id="clipPath44"><path
         d="M 0,137.486 H 675.898 V 0 H 0 Z"
         id="path42" /></clipPath></defs><g
     id="g36"
     transform="matrix(1.3333333,0,0,-1.3333333,0,183.31467)"><g
       id="g38"><g
         id="g40"
         clip-path="url(#clipPath44)"><g
           id="g46"
           transform="translate(238.6909,56.2599)"><path
             d="m 0,0 c 0,11.158 -5.863,14.752 -15.13,14.752 -8.51,0 -14.185,-4.73 -17.589,-8.89 V -53.144 H -61.844 V 73.001 h 29.125 V 27.045 c 5.486,6.43 16.266,13.427 31.583,13.427 20.805,0 30.26,-11.724 30.26,-28.557 v -65.059 l -29.124,0 z m 97.525,-53.144 h 29.122 V 38.201 H 97.525 v -59.005 c -3.404,-4.349 -9.079,-8.888 -17.4,-8.888 -9.456,0 -15.129,3.782 -15.129,14.752 V 38.201 H 35.87 v -65.055 c 0,-16.833 9.267,-28.558 30.072,-28.558 15.317,0 25.909,6.808 31.583,13.238 z m 268.344,93.616 c -14.373,0 -26.288,-8.321 -31.582,-16.264 -3.783,10.779 -12.862,16.264 -25.91,16.264 -13.481,0 -24.595,-7.14 -29.206,-12.398 -2.026,4.117 -5.056,7.188 -8.905,9.295 -4.325,2.537 -9.759,3.778 -16.086,3.778 -3.493,0 -6.836,-0.498 -9.978,-1.355 -11.217,-2.1 -20.255,-8.957 -24.673,-15.584 -3.782,10.779 -12.861,16.264 -25.91,16.264 -14.373,0 -26.099,-8.131 -30.07,-13.427 v 11.156 h -29.125 v -91.345 h 29.125 V 5.862 c 3.026,3.784 8.51,8.89 16.263,8.89 8.89,0 12.106,-5.296 12.106,-12.293 v -55.603 h 29.124 V 5.862 c 2.104,2.809 5.778,6.341 10.779,7.979 0.957,0.278 1.959,0.514 2.997,0.707 0.863,0.129 1.754,0.204 2.679,0.204 6.981,0 10.546,-3.415 11.685,-8.38 v -59.516 h 0.418 28.705 0.231 V 6.142 c 3.068,3.749 8.467,8.61 16.035,8.61 8.887,0 12.103,-5.296 12.103,-12.293 v -55.603 h 29.124 V 5.862 c 2.838,3.784 8.512,8.89 16.455,8.89 8.7,0 12.102,-5.296 12.102,-12.293 v -55.603 h 28.937 v 66.193 c 0,18.722 -10.59,27.423 -27.423,27.423"
             style="fill:#ff6c00;fill-opacity:1;fill-rule:nonzero;stroke:none"
             id="path48" /></g><g
           id="g50"
           transform="translate(144.0135,130.8692)"><path
             d="m 0,0 -63.073,-63.073 c -0.494,-0.494 -1.142,-0.742 -1.789,-0.742 -0.648,0 -1.296,0.248 -1.79,0.742 -0.989,0.988 -0.989,2.591 0,3.579 l 44.08,44.08 -0.968,1.511 c -11.707,10.904 -27.397,17.586 -44.656,17.586 -18.063,0 -34.418,-7.306 -46.277,-19.122 -4.259,-4.327 -18.14,-5.059 -27.64,-3.967 5.876,-7.554 11.618,-19.041 10.393,-26.191 -1.331,-5.208 -2.04,-10.663 -2.04,-16.284 0,-36.21 29.354,-65.565 65.564,-65.565 0.377,0 0.751,0.007 1.126,0.013 v -0.013 h 64.439 v 44.59 C 20.06,-60.094 20.929,-23.815 0,0"
             style="fill:#ff6c00;fill-opacity:1;fill-rule:nonzero;stroke:none"
             id="path52" /></g><g
           id="g54"
           transform="translate(655.894,57.7062)"><path
             d="m 0,0 c 10.146,0 18.228,8.062 18.228,17.989 0,10.014 -8.082,17.99 -18.228,17.99 -10.06,0 -18.229,-7.976 -18.229,-17.99 C -18.229,8.062 -10.06,0 0,0 m 0,33.009 c 8.426,0 15.218,-6.618 15.218,-15.02 C 15.218,9.759 8.426,2.97 0,2.97 c -8.427,0 -15.219,6.789 -15.219,15.019 0,8.402 6.792,15.02 15.219,15.02 M 4.9,7.637 h 3.869 l -5.588,8.231 c 1.204,0 5.331,1.528 5.331,6.11 0,3.818 -3.009,6.279 -7.051,6.279 H -7.051 V 7.637 h 3.181 v 8.146 h 3.353 z m -3.439,17.99 c 2.321,0 3.783,-1.358 3.783,-3.649 0,-2.122 -1.462,-3.479 -3.783,-3.479 H -3.87 v 7.128 z"
             style="fill:#ff6c00;fill-opacity:1;fill-rule:nonzero;stroke:none"
             id="path56" /></g><g
           id="g58"
           transform="translate(48.4395,94.3692)"><path
             d="m 0,0 c -3.801,0 -7.061,2.302 -8.475,5.586 -0.457,1.185 -0.728,2.462 -0.743,3.804 0.005,0.234 0.022,0.464 0.044,0.694 0.004,0.074 0.016,0.143 0.022,0.216 0.743,-1.831 2.529,-3.125 4.626,-3.125 2.763,0 5.001,2.239 5.001,5.001 0,2.762 -2.238,5.002 -5.001,5.002 -0.061,0 -0.118,-0.016 -0.178,-0.019 1.379,0.82 2.984,1.299 4.704,1.299 5.098,0.001 9.23,-4.13 9.23,-9.229 C 9.23,4.132 5.098,0 0,0"
             style="fill:#ffffff;fill-opacity:1;fill-rule:nonzero;stroke:none"
             id="path60" /></g></g></g></g></svg>
